<?xml version="1.0" encoding="UTF-8"?><svg id="Capa_2" xmlns="http://www.w3.org/2000/svg" xmlns:xlink="http://www.w3.org/1999/xlink" viewBox="0 0 312.16 304.96"><defs><style>.cls-1{fill:none;}.cls-2{clip-path:url(#clippath);}.cls-3{fill:#ededed;}</style><clipPath id="clippath"><rect class="cls-1" x="18.47" y="15.69" width="288" height="288"/></clipPath></defs><g id="Layer_1"><g class="cls-2"><path class="cls-3" d="m7.2,1.28c0-.71.57-1.28,1.28-1.28s1.28.57,1.28,1.28-.57,1.28-1.28,1.28-1.28-.57-1.28-1.28Zm15.68,1.28c.71,0,1.28-.57,1.28-1.28s-.57-1.28-1.28-1.28-1.28.57-1.28,1.28.57,1.28,1.28,1.28Zm14.4,0c.71,0,1.28-.57,1.28-1.28s-.57-1.28-1.28-1.28-1.28.57-1.28,1.28.57,1.28,1.28,1.28Zm14.4,0c.71,0,1.28-.57,1.28-1.28s-.57-1.28-1.28-1.28-1.28.57-1.28,1.28.57,1.28,1.28,1.28Zm14.4,0c.71,0,1.28-.57,1.28-1.28s-.57-1.28-1.28-1.28-1.28.57-1.28,1.28.57,1.28,1.28,1.28Zm14.4,0c.71,0,1.28-.57,1.28-1.28s-.57-1.28-1.28-1.28-1.28.57-1.28,1.28.57,1.28,1.28,1.28Zm14.4,0c.71,0,1.28-.57,1.28-1.28s-.57-1.28-1.28-1.28-1.28.57-1.28,1.28.57,1.28,1.28,1.28Zm14.4,0c.71,0,1.28-.57,1.28-1.28s-.57-1.28-1.28-1.28-1.28.57-1.28,1.28.57,1.28,1.28,1.28Zm14.4,0c.71,0,1.28-.57,1.28-1.28s-.57-1.28-1.28-1.28-1.28.57-1.28,1.28.57,1.28,1.28,1.28Zm14.4,0c.71,0,1.28-.57,1.28-1.28s-.57-1.28-1.28-1.28-1.28.57-1.28,1.28.57,1.28,1.28,1.28Zm14.4,0c.71,0,1.28-.57,1.28-1.28s-.57-1.28-1.28-1.28-1.28.57-1.28,1.28.57,1.28,1.28,1.28Zm14.4,0c.71,0,1.28-.57,1.28-1.28s-.57-1.28-1.28-1.28-1.28.57-1.28,1.28.57,1.28,1.28,1.28Zm14.4,0c.71,0,1.28-.57,1.28-1.28s-.57-1.28-1.28-1.28-1.28.57-1.28,1.28.57,1.28,1.28,1.28Zm14.4,0c.71,0,1.28-.57,1.28-1.28s-.57-1.28-1.28-1.28-1.28.57-1.28,1.28.57,1.28,1.28,1.28Zm14.4,0c.71,0,1.28-.57,1.28-1.28s-.57-1.28-1.28-1.28-1.28.57-1.28,1.28.57,1.28,1.28,1.28Zm14.4,0c.71,0,1.28-.57,1.28-1.28s-.57-1.28-1.28-1.28-1.28.57-1.28,1.28.57,1.28,1.28,1.28Zm14.4,0c.71,0,1.28-.57,1.28-1.28s-.57-1.28-1.28-1.28-1.28.57-1.28,1.28.57,1.28,1.28,1.28Zm14.4,0c.71,0,1.28-.57,1.28-1.28s-.57-1.28-1.28-1.28-1.28.57-1.28,1.28.57,1.28,1.28,1.28Zm14.4,0c.71,0,1.28-.57,1.28-1.28s-.57-1.28-1.28-1.28-1.28.57-1.28,1.28.57,1.28,1.28,1.28Zm14.4,0c.71,0,1.28-.57,1.28-1.28s-.57-1.28-1.28-1.28-1.28.57-1.28,1.28.57,1.28,1.28,1.28Zm14.4,0c.71,0,1.28-.57,1.28-1.28s-.57-1.28-1.28-1.28-1.28.57-1.28,1.28.57,1.28,1.28,1.28Zm14.4,0c.71,0,1.28-.57,1.28-1.28s-.57-1.28-1.28-1.28-1.28.57-1.28,1.28.57,1.28,1.28,1.28ZM1.28,16.96c.71,0,1.28-.57,1.28-1.28s-.57-1.28-1.28-1.28-1.28.57-1.28,1.28.57,1.28,1.28,1.28Zm14.4,0c.71,0,1.28-.57,1.28-1.28s-.57-1.28-1.28-1.28-1.28.57-1.28,1.28.57,1.28,1.28,1.28Zm14.4,0c.71,0,1.28-.57,1.28-1.28s-.57-1.28-1.28-1.28-1.28.57-1.28,1.28.57,1.28,1.28,1.28Zm14.4,0c.71,0,1.28-.57,1.28-1.28s-.57-1.28-1.28-1.28-1.28.57-1.28,1.28.57,1.28,1.28,1.28Zm14.4,0c.71,0,1.28-.57,1.28-1.28s-.57-1.28-1.28-1.28-1.28.57-1.28,1.28.57,1.28,1.28,1.28Zm14.4,0c.71,0,1.28-.57,1.28-1.28s-.57-1.28-1.28-1.28-1.28.57-1.28,1.28.57,1.28,1.28,1.28Zm14.4,0c.71,0,1.28-.57,1.28-1.28s-.57-1.28-1.28-1.28-1.28.57-1.28,1.28.57,1.28,1.28,1.28Zm14.4,0c.71,0,1.28-.57,1.28-1.28s-.57-1.28-1.28-1.28-1.28.57-1.28,1.28.57,1.28,1.28,1.28Zm14.4,0c.71,0,1.28-.57,1.28-1.28s-.57-1.28-1.28-1.28-1.28.57-1.28,1.28.57,1.28,1.28,1.28Zm14.4,0c.71,0,1.28-.57,1.28-1.28s-.57-1.28-1.28-1.28-1.28.57-1.28,1.28.57,1.28,1.28,1.28Zm14.4,0c.71,0,1.28-.57,1.28-1.28s-.57-1.28-1.28-1.28-1.28.57-1.28,1.28.57,1.28,1.28,1.28Zm14.4,0c.71,0,1.28-.57,1.28-1.28s-.57-1.28-1.28-1.28-1.28.57-1.28,1.28.57,1.28,1.28,1.28Zm14.4,0c.71,0,1.28-.57,1.28-1.28s-.57-1.28-1.28-1.28-1.28.57-1.28,1.28.57,1.28,1.28,1.28Zm14.4,0c.71,0,1.28-.57,1.28-1.28s-.57-1.28-1.28-1.28-1.28.57-1.28,1.28.57,1.28,1.28,1.28Zm14.4,0c.71,0,1.28-.57,1.28-1.28s-.57-1.28-1.28-1.28-1.28.57-1.28,1.28.57,1.28,1.28,1.28Zm14.4,0c.71,0,1.28-.57,1.28-1.28s-.57-1.28-1.28-1.28-1.28.57-1.28,1.28.57,1.28,1.28,1.28Zm14.4,0c.71,0,1.28-.57,1.28-1.28s-.57-1.28-1.28-1.28-1.28.57-1.28,1.28.57,1.28,1.28,1.28Zm14.4,0c.71,0,1.28-.57,1.28-1.28s-.57-1.28-1.28-1.28-1.28.57-1.28,1.28.57,1.28,1.28,1.28Zm14.4,0c.71,0,1.28-.57,1.28-1.28s-.57-1.28-1.28-1.28-1.28.57-1.28,1.28.57,1.28,1.28,1.28Zm14.4,0c.71,0,1.28-.57,1.28-1.28s-.57-1.28-1.28-1.28-1.28.57-1.28,1.28.57,1.28,1.28,1.28Zm14.4,0c.71,0,1.28-.57,1.28-1.28s-.57-1.28-1.28-1.28-1.28.57-1.28,1.28.57,1.28,1.28,1.28Zm14.4,0c.71,0,1.28-.57,1.28-1.28s-.57-1.28-1.28-1.28-1.28.57-1.28,1.28.57,1.28,1.28,1.28ZM8.48,31.36c.71,0,1.28-.57,1.28-1.28s-.57-1.28-1.28-1.28-1.28.57-1.28,1.28.57,1.28,1.28,1.28Zm14.4,0c.71,0,1.28-.57,1.28-1.28s-.57-1.28-1.28-1.28-1.28.57-1.28,1.28.57,1.28,1.28,1.28Zm14.4,0c.71,0,1.28-.57,1.28-1.28s-.57-1.28-1.28-1.28-1.28.57-1.28,1.28.57,1.28,1.28,1.28Zm14.4,0c.71,0,1.28-.57,1.28-1.28s-.57-1.28-1.28-1.28-1.28.57-1.28,1.28.57,1.28,1.28,1.28Zm14.4,0c.71,0,1.28-.57,1.28-1.28s-.57-1.28-1.28-1.28-1.28.57-1.28,1.28.57,1.28,1.28,1.28Zm14.4,0c.71,0,1.28-.57,1.28-1.28s-.57-1.28-1.28-1.28-1.28.57-1.28,1.28.57,1.28,1.28,1.28Zm14.4,0c.71,0,1.28-.57,1.28-1.28s-.57-1.28-1.28-1.28-1.28.57-1.28,1.28.57,1.28,1.28,1.28Zm14.4,0c.71,0,1.28-.57,1.28-1.28s-.57-1.28-1.28-1.28-1.28.57-1.28,1.28.57,1.28,1.28,1.28Zm14.4,0c.71,0,1.28-.57,1.28-1.28s-.57-1.28-1.28-1.28-1.28.57-1.28,1.28.57,1.28,1.28,1.28Zm14.4,0c.71,0,1.28-.57,1.28-1.28s-.57-1.28-1.28-1.28-1.28.57-1.28,1.28.57,1.28,1.28,1.28Zm14.4,0c.71,0,1.28-.57,1.28-1.28s-.57-1.28-1.28-1.28-1.28.57-1.28,1.28.57,1.28,1.28,1.28Zm14.4,0c.71,0,1.28-.57,1.28-1.28s-.57-1.28-1.28-1.28-1.28.57-1.28,1.28.57,1.28,1.28,1.28Zm14.4,0c.71,0,1.28-.57,1.28-1.28s-.57-1.28-1.28-1.28-1.28.57-1.28,1.28.57,1.28,1.28,1.28Zm14.4,0c.71,0,1.28-.57,1.28-1.28s-.57-1.28-1.28-1.28-1.28.57-1.28,1.28.57,1.28,1.28,1.28Zm14.4,0c.71,0,1.28-.57,1.28-1.28s-.57-1.28-1.28-1.28-1.28.57-1.28,1.28.57,1.28,1.28,1.28Zm14.4,0c.71,0,1.28-.57,1.28-1.28s-.57-1.28-1.28-1.28-1.28.57-1.28,1.28.57,1.28,1.28,1.28Zm14.4,0c.71,0,1.28-.57,1.28-1.28s-.57-1.28-1.28-1.28-1.28.57-1.28,1.28.57,1.28,1.28,1.28Zm14.4,0c.71,0,1.28-.57,1.28-1.28s-.57-1.28-1.28-1.28-1.28.57-1.28,1.28.57,1.28,1.28,1.28Zm14.4,0c.71,0,1.28-.57,1.28-1.28s-.57-1.28-1.28-1.28-1.28.57-1.28,1.28.57,1.28,1.28,1.28Zm14.4,0c.71,0,1.28-.57,1.28-1.28s-.57-1.28-1.28-1.28-1.28.57-1.28,1.28.57,1.28,1.28,1.28Zm14.4,0c.71,0,1.28-.57,1.28-1.28s-.57-1.28-1.28-1.28-1.28.57-1.28,1.28.57,1.28,1.28,1.28Zm14.4,0c.71,0,1.28-.57,1.28-1.28s-.57-1.28-1.28-1.28-1.28.57-1.28,1.28.57,1.28,1.28,1.28ZM1.28,45.76c.71,0,1.28-.57,1.28-1.28s-.57-1.28-1.28-1.28-1.28.57-1.28,1.28.57,1.28,1.28,1.28Zm14.4,0c.71,0,1.28-.57,1.28-1.28s-.57-1.28-1.28-1.28-1.28.57-1.28,1.28.57,1.28,1.28,1.28Zm14.4,0c.71,0,1.28-.57,1.28-1.28s-.57-1.28-1.28-1.28-1.28.57-1.28,1.28.57,1.28,1.28,1.28Zm14.4,0c.71,0,1.28-.57,1.28-1.28s-.57-1.28-1.28-1.28-1.28.57-1.28,1.28.57,1.28,1.28,1.28Zm14.4,0c.71,0,1.28-.57,1.28-1.28s-.57-1.28-1.28-1.28-1.28.57-1.28,1.28.57,1.28,1.28,1.28Zm14.4,0c.71,0,1.28-.57,1.28-1.28s-.57-1.28-1.28-1.28-1.28.57-1.28,1.28.57,1.28,1.28,1.28Zm14.4,0c.71,0,1.28-.57,1.28-1.28s-.57-1.28-1.28-1.28-1.28.57-1.28,1.28.57,1.28,1.28,1.28Zm14.4,0c.71,0,1.28-.57,1.28-1.28s-.57-1.28-1.28-1.28-1.28.57-1.28,1.28.57,1.28,1.28,1.28Zm14.4,0c.71,0,1.28-.57,1.28-1.28s-.57-1.28-1.28-1.28-1.28.57-1.28,1.28.57,1.28,1.28,1.28Zm14.4,0c.71,0,1.28-.57,1.28-1.28s-.57-1.28-1.28-1.28-1.28.57-1.28,1.28.57,1.28,1.28,1.28Zm14.4,0c.71,0,1.28-.57,1.28-1.28s-.57-1.28-1.28-1.28-1.28.57-1.28,1.28.57,1.28,1.28,1.28Zm14.4,0c.71,0,1.28-.57,1.28-1.28s-.57-1.28-1.28-1.28-1.28.57-1.28,1.28.57,1.28,1.28,1.28Zm14.4,0c.71,0,1.28-.57,1.28-1.28s-.57-1.28-1.28-1.28-1.28.57-1.28,1.28.57,1.28,1.28,1.28Zm14.4,0c.71,0,1.28-.57,1.28-1.28s-.57-1.28-1.28-1.28-1.28.57-1.28,1.28.57,1.28,1.28,1.28Zm14.4,0c.71,0,1.28-.57,1.28-1.28s-.57-1.28-1.28-1.28-1.28.57-1.28,1.28.57,1.28,1.28,1.28Zm14.4,0c.71,0,1.28-.57,1.28-1.28s-.57-1.28-1.28-1.28-1.28.57-1.28,1.28.57,1.28,1.28,1.28Zm14.4,0c.71,0,1.28-.57,1.28-1.28s-.57-1.28-1.28-1.28-1.28.57-1.28,1.28.57,1.28,1.28,1.28Zm14.4,0c.71,0,1.28-.57,1.28-1.28s-.57-1.28-1.28-1.28-1.28.57-1.28,1.28.57,1.28,1.28,1.28Zm14.4,0c.71,0,1.28-.57,1.28-1.28s-.57-1.28-1.28-1.28-1.28.57-1.28,1.28.57,1.28,1.28,1.28Zm14.4,0c.71,0,1.28-.57,1.28-1.28s-.57-1.28-1.28-1.28-1.28.57-1.28,1.28.57,1.28,1.28,1.28Zm14.4,0c.71,0,1.28-.57,1.28-1.28s-.57-1.28-1.28-1.28-1.28.57-1.28,1.28.57,1.28,1.28,1.28Zm14.4,0c.71,0,1.28-.57,1.28-1.28s-.57-1.28-1.28-1.28-1.28.57-1.28,1.28.57,1.28,1.28,1.28ZM8.48,60.16c.71,0,1.28-.57,1.28-1.28s-.57-1.28-1.28-1.28-1.28.57-1.28,1.28.57,1.28,1.28,1.28Zm14.4,0c.71,0,1.28-.57,1.28-1.28s-.57-1.28-1.28-1.28-1.28.57-1.28,1.28.57,1.28,1.28,1.28Zm14.4,0c.71,0,1.28-.57,1.28-1.28s-.57-1.28-1.28-1.28-1.28.57-1.28,1.28.57,1.28,1.28,1.28Zm14.4,0c.71,0,1.28-.57,1.28-1.28s-.57-1.28-1.28-1.28-1.28.57-1.28,1.28.57,1.28,1.28,1.28Zm14.4,0c.71,0,1.28-.57,1.28-1.28s-.57-1.28-1.28-1.28-1.28.57-1.28,1.28.57,1.28,1.28,1.28Zm14.4,0c.71,0,1.28-.57,1.28-1.28s-.57-1.28-1.28-1.28-1.28.57-1.28,1.28.57,1.28,1.28,1.28Zm14.4,0c.71,0,1.28-.57,1.28-1.28s-.57-1.28-1.28-1.28-1.28.57-1.28,1.28.57,1.28,1.28,1.28Zm14.4,0c.71,0,1.28-.57,1.28-1.28s-.57-1.28-1.28-1.28-1.28.57-1.28,1.28.57,1.28,1.28,1.28Zm14.4,0c.71,0,1.28-.57,1.28-1.28s-.57-1.28-1.28-1.28-1.28.57-1.28,1.28.57,1.28,1.28,1.28Zm14.4,0c.71,0,1.28-.57,1.28-1.28s-.57-1.28-1.28-1.28-1.28.57-1.28,1.28.57,1.28,1.28,1.28Zm14.4,0c.71,0,1.28-.57,1.28-1.28s-.57-1.28-1.28-1.28-1.28.57-1.28,1.28.57,1.28,1.28,1.28Zm14.4,0c.71,0,1.28-.57,1.28-1.28s-.57-1.28-1.28-1.28-1.28.57-1.28,1.28.57,1.28,1.28,1.28Zm14.4,0c.71,0,1.28-.57,1.28-1.28s-.57-1.28-1.28-1.28-1.28.57-1.28,1.28.57,1.28,1.28,1.28Zm14.4,0c.71,0,1.28-.57,1.28-1.28s-.57-1.28-1.28-1.28-1.28.57-1.28,1.28.57,1.28,1.28,1.28Zm14.4,0c.71,0,1.28-.57,1.28-1.28s-.57-1.28-1.28-1.28-1.28.57-1.28,1.28.57,1.28,1.28,1.28Zm14.4,0c.71,0,1.28-.57,1.28-1.28s-.57-1.28-1.28-1.28-1.28.57-1.28,1.28.57,1.28,1.28,1.28Zm14.4,0c.71,0,1.28-.57,1.28-1.28s-.57-1.28-1.28-1.28-1.28.57-1.28,1.28.57,1.28,1.28,1.28Zm14.4,0c.71,0,1.28-.57,1.28-1.28s-.57-1.28-1.28-1.28-1.28.57-1.28,1.28.57,1.28,1.28,1.28Zm14.4,0c.71,0,1.28-.57,1.28-1.28s-.57-1.28-1.28-1.28-1.28.57-1.28,1.28.57,1.28,1.28,1.28Zm14.4,0c.71,0,1.28-.57,1.28-1.28s-.57-1.28-1.28-1.28-1.28.57-1.28,1.28.57,1.28,1.28,1.28Zm14.4,0c.71,0,1.28-.57,1.28-1.28s-.57-1.28-1.28-1.28-1.28.57-1.28,1.28.57,1.28,1.28,1.28Zm14.4,0c.71,0,1.28-.57,1.28-1.28s-.57-1.28-1.28-1.28-1.28.57-1.28,1.28.57,1.28,1.28,1.28ZM1.28,74.56c.71,0,1.28-.57,1.28-1.28s-.57-1.28-1.28-1.28-1.28.57-1.28,1.28.57,1.28,1.28,1.28Zm14.4,0c.71,0,1.28-.57,1.28-1.28s-.57-1.28-1.28-1.28-1.28.57-1.28,1.28.57,1.28,1.28,1.28Zm14.4,0c.71,0,1.28-.57,1.28-1.28s-.57-1.28-1.28-1.28-1.28.57-1.28,1.28.57,1.28,1.28,1.28Zm14.4,0c.71,0,1.28-.57,1.28-1.28s-.57-1.28-1.28-1.28-1.28.57-1.28,1.28.57,1.28,1.28,1.28Zm14.4,0c.71,0,1.28-.57,1.28-1.28s-.57-1.28-1.28-1.28-1.28.57-1.28,1.28.57,1.28,1.28,1.28Zm14.4,0c.71,0,1.28-.57,1.28-1.28s-.57-1.28-1.28-1.28-1.28.57-1.28,1.28.57,1.28,1.28,1.28Zm14.4,0c.71,0,1.28-.57,1.28-1.28s-.57-1.28-1.28-1.28-1.28.57-1.28,1.28.57,1.28,1.28,1.28Zm14.4,0c.71,0,1.28-.57,1.28-1.28s-.57-1.28-1.28-1.28-1.28.57-1.28,1.28.57,1.28,1.28,1.28Zm14.4,0c.71,0,1.28-.57,1.28-1.28s-.57-1.28-1.28-1.28-1.28.57-1.28,1.28.57,1.28,1.28,1.28Zm14.4,0c.71,0,1.28-.57,1.28-1.28s-.57-1.28-1.28-1.28-1.28.57-1.28,1.28.57,1.28,1.28,1.28Zm14.4,0c.71,0,1.28-.57,1.28-1.28s-.57-1.28-1.28-1.28-1.28.57-1.28,1.28.57,1.28,1.28,1.28Zm14.4,0c.71,0,1.28-.57,1.28-1.28s-.57-1.28-1.28-1.28-1.28.57-1.28,1.28.57,1.28,1.28,1.28Zm14.4,0c.71,0,1.28-.57,1.28-1.28s-.57-1.28-1.28-1.28-1.28.57-1.28,1.28.57,1.28,1.28,1.28Zm14.4,0c.71,0,1.28-.57,1.28-1.28s-.57-1.28-1.28-1.28-1.28.57-1.28,1.28.57,1.28,1.28,1.28Zm14.4,0c.71,0,1.28-.57,1.28-1.28s-.57-1.28-1.28-1.28-1.28.57-1.28,1.28.57,1.28,1.28,1.28Zm14.4,0c.71,0,1.28-.57,1.28-1.28s-.57-1.28-1.28-1.28-1.28.57-1.28,1.28.57,1.28,1.28,1.28Zm14.4,0c.71,0,1.28-.57,1.28-1.28s-.57-1.28-1.28-1.28-1.28.57-1.28,1.28.57,1.28,1.28,1.28Zm14.4,0c.71,0,1.28-.57,1.28-1.28s-.57-1.28-1.28-1.28-1.28.57-1.28,1.28.57,1.28,1.28,1.28Zm14.4,0c.71,0,1.28-.57,1.28-1.28s-.57-1.28-1.28-1.28-1.28.57-1.28,1.28.57,1.28,1.28,1.28Zm14.4,0c.71,0,1.28-.57,1.28-1.28s-.57-1.28-1.28-1.28-1.28.57-1.28,1.28.57,1.28,1.28,1.28Zm14.4,0c.71,0,1.28-.57,1.28-1.28s-.57-1.28-1.28-1.28-1.28.57-1.28,1.28.57,1.28,1.28,1.28Zm14.4,0c.71,0,1.28-.57,1.28-1.28s-.57-1.28-1.28-1.28-1.28.57-1.28,1.28.57,1.28,1.28,1.28ZM8.48,88.96c.71,0,1.28-.57,1.28-1.28s-.57-1.28-1.28-1.28-1.28.57-1.28,1.28.57,1.28,1.28,1.28Zm14.4,0c.71,0,1.28-.57,1.28-1.28s-.57-1.28-1.28-1.28-1.28.57-1.28,1.28.57,1.28,1.28,1.28Zm14.4,0c.71,0,1.28-.57,1.28-1.28s-.57-1.28-1.28-1.28-1.28.57-1.28,1.28.57,1.28,1.28,1.28Zm14.4,0c.71,0,1.28-.57,1.28-1.28s-.57-1.28-1.28-1.28-1.28.57-1.28,1.28.57,1.28,1.28,1.28Zm14.4,0c.71,0,1.28-.57,1.28-1.28s-.57-1.28-1.28-1.28-1.28.57-1.28,1.28.57,1.28,1.28,1.28Zm14.4,0c.71,0,1.28-.57,1.28-1.28s-.57-1.28-1.28-1.28-1.28.57-1.28,1.28.57,1.28,1.28,1.28Zm14.4,0c.71,0,1.28-.57,1.28-1.28s-.57-1.28-1.28-1.28-1.28.57-1.28,1.28.57,1.28,1.28,1.28Zm14.4,0c.71,0,1.28-.57,1.28-1.28s-.57-1.28-1.28-1.28-1.28.57-1.28,1.28.57,1.28,1.28,1.28Zm14.4,0c.71,0,1.28-.57,1.28-1.28s-.57-1.28-1.28-1.28-1.28.57-1.28,1.28.57,1.28,1.28,1.28Zm14.4,0c.71,0,1.28-.57,1.28-1.28s-.57-1.28-1.28-1.28-1.28.57-1.28,1.28.57,1.28,1.28,1.28Zm14.4,0c.71,0,1.28-.57,1.28-1.28s-.57-1.28-1.28-1.28-1.28.57-1.28,1.28.57,1.28,1.28,1.28Zm14.4,0c.71,0,1.28-.57,1.28-1.28s-.57-1.28-1.28-1.28-1.28.57-1.28,1.28.57,1.28,1.28,1.28Zm14.4,0c.71,0,1.28-.57,1.28-1.28s-.57-1.28-1.28-1.28-1.28.57-1.28,1.28.57,1.28,1.28,1.28Zm14.4,0c.71,0,1.28-.57,1.28-1.28s-.57-1.28-1.28-1.28-1.28.57-1.28,1.28.57,1.28,1.28,1.28Zm14.4,0c.71,0,1.28-.57,1.28-1.28s-.57-1.28-1.28-1.28-1.28.57-1.28,1.28.57,1.28,1.28,1.28Zm14.4,0c.71,0,1.28-.57,1.28-1.28s-.57-1.28-1.28-1.28-1.28.57-1.28,1.28.57,1.28,1.28,1.28Zm14.4,0c.71,0,1.28-.57,1.28-1.28s-.57-1.28-1.28-1.28-1.28.57-1.28,1.28.57,1.28,1.28,1.28Zm14.4,0c.71,0,1.28-.57,1.28-1.28s-.57-1.28-1.28-1.28-1.28.57-1.28,1.28.57,1.28,1.28,1.28Zm14.4,0c.71,0,1.28-.57,1.28-1.28s-.57-1.28-1.28-1.28-1.28.57-1.28,1.28.57,1.28,1.28,1.28Zm14.4,0c.71,0,1.28-.57,1.28-1.28s-.57-1.28-1.28-1.28-1.28.57-1.28,1.28.57,1.28,1.28,1.28Zm14.4,0c.71,0,1.28-.57,1.28-1.28s-.57-1.28-1.28-1.28-1.28.57-1.28,1.28.57,1.28,1.28,1.28Zm14.4,0c.71,0,1.28-.57,1.28-1.28s-.57-1.28-1.28-1.28-1.28.57-1.28,1.28.57,1.28,1.28,1.28ZM1.28,103.36c.71,0,1.28-.57,1.28-1.28s-.57-1.28-1.28-1.28-1.28.57-1.28,1.28.57,1.28,1.28,1.28Zm14.4,0c.71,0,1.28-.57,1.28-1.28s-.57-1.28-1.28-1.28-1.28.57-1.28,1.28.57,1.28,1.28,1.28Zm14.4,0c.71,0,1.28-.57,1.28-1.28s-.57-1.28-1.28-1.28-1.28.57-1.28,1.28.57,1.28,1.28,1.28Zm14.4,0c.71,0,1.28-.57,1.28-1.28s-.57-1.28-1.28-1.28-1.28.57-1.28,1.28.57,1.28,1.28,1.28Zm14.4,0c.71,0,1.28-.57,1.28-1.28s-.57-1.28-1.28-1.28-1.28.57-1.28,1.28.57,1.28,1.28,1.28Zm14.4,0c.71,0,1.28-.57,1.28-1.28s-.57-1.28-1.28-1.28-1.28.57-1.28,1.28.57,1.28,1.28,1.28Zm14.4,0c.71,0,1.28-.57,1.28-1.28s-.57-1.28-1.28-1.28-1.28.57-1.28,1.28.57,1.28,1.28,1.28Zm14.4,0c.71,0,1.28-.57,1.28-1.28s-.57-1.28-1.28-1.28-1.28.57-1.28,1.28.57,1.28,1.28,1.28Zm14.4,0c.71,0,1.28-.57,1.28-1.28s-.57-1.28-1.28-1.28-1.28.57-1.28,1.28.57,1.28,1.28,1.28Zm14.4,0c.71,0,1.28-.57,1.28-1.28s-.57-1.28-1.28-1.28-1.28.57-1.28,1.28.57,1.28,1.28,1.28Zm14.4,0c.71,0,1.28-.57,1.28-1.28s-.57-1.28-1.28-1.28-1.28.57-1.28,1.28.57,1.28,1.28,1.28Zm14.4,0c.71,0,1.28-.57,1.28-1.28s-.57-1.28-1.28-1.28-1.28.57-1.28,1.28.57,1.28,1.28,1.28Zm14.4,0c.71,0,1.28-.57,1.28-1.28s-.57-1.28-1.28-1.28-1.28.57-1.28,1.28.57,1.28,1.28,1.28Zm14.4,0c.71,0,1.28-.57,1.28-1.28s-.57-1.28-1.28-1.28-1.28.57-1.28,1.28.57,1.28,1.28,1.28Zm14.4,0c.71,0,1.28-.57,1.28-1.28s-.57-1.28-1.28-1.28-1.28.57-1.28,1.28.57,1.28,1.28,1.28Zm14.4,0c.71,0,1.28-.57,1.28-1.28s-.57-1.28-1.28-1.28-1.28.57-1.28,1.28.57,1.28,1.28,1.28Zm14.4,0c.71,0,1.28-.57,1.28-1.28s-.57-1.28-1.28-1.28-1.28.57-1.28,1.28.57,1.28,1.28,1.28Zm14.4,0c.71,0,1.28-.57,1.28-1.28s-.57-1.28-1.28-1.28-1.28.57-1.28,1.28.57,1.28,1.28,1.28Zm14.4,0c.71,0,1.28-.57,1.28-1.28s-.57-1.28-1.28-1.28-1.28.57-1.28,1.28.57,1.28,1.28,1.28Zm14.4,0c.71,0,1.28-.57,1.28-1.28s-.57-1.28-1.28-1.28-1.28.57-1.28,1.28.57,1.28,1.28,1.28Zm14.4,0c.71,0,1.28-.57,1.28-1.28s-.57-1.28-1.28-1.28-1.28.57-1.28,1.28.57,1.28,1.28,1.28Zm14.4,0c.71,0,1.28-.57,1.28-1.28s-.57-1.28-1.28-1.28-1.28.57-1.28,1.28.57,1.28,1.28,1.28ZM8.48,117.76c.71,0,1.28-.57,1.28-1.28s-.57-1.28-1.28-1.28-1.28.57-1.28,1.28.57,1.28,1.28,1.28Zm14.4,0c.71,0,1.28-.57,1.28-1.28s-.57-1.28-1.28-1.28-1.28.57-1.28,1.28.57,1.28,1.28,1.28Zm14.4,0c.71,0,1.28-.57,1.28-1.28s-.57-1.28-1.28-1.28-1.28.57-1.28,1.28.57,1.28,1.28,1.28Zm14.4,0c.71,0,1.28-.57,1.28-1.28s-.57-1.28-1.28-1.28-1.28.57-1.28,1.28.57,1.28,1.28,1.28Zm14.4,0c.71,0,1.28-.57,1.28-1.28s-.57-1.28-1.28-1.28-1.28.57-1.28,1.28.57,1.28,1.28,1.28Zm14.4,0c.71,0,1.28-.57,1.28-1.28s-.57-1.28-1.28-1.28-1.28.57-1.28,1.28.57,1.28,1.28,1.28Zm14.4,0c.71,0,1.28-.57,1.28-1.28s-.57-1.28-1.28-1.28-1.28.57-1.28,1.28.57,1.28,1.28,1.28Zm14.4,0c.71,0,1.28-.57,1.28-1.28s-.57-1.28-1.28-1.28-1.28.57-1.28,1.28.57,1.28,1.28,1.28Zm14.4,0c.71,0,1.28-.57,1.28-1.28s-.57-1.28-1.28-1.28-1.28.57-1.28,1.28.57,1.28,1.28,1.28Zm14.4,0c.71,0,1.28-.57,1.28-1.28s-.57-1.28-1.28-1.28-1.28.57-1.28,1.28.57,1.28,1.28,1.28Zm14.4,0c.71,0,1.28-.57,1.28-1.28s-.57-1.28-1.28-1.28-1.28.57-1.28,1.28.57,1.28,1.28,1.28Zm14.4,0c.71,0,1.28-.57,1.28-1.28s-.57-1.28-1.28-1.28-1.28.57-1.28,1.28.57,1.28,1.28,1.28Zm14.4,0c.71,0,1.28-.57,1.28-1.28s-.57-1.28-1.28-1.28-1.28.57-1.28,1.28.57,1.28,1.28,1.28Zm14.4,0c.71,0,1.28-.57,1.28-1.28s-.57-1.28-1.28-1.28-1.28.57-1.28,1.28.57,1.28,1.28,1.28Zm14.4,0c.71,0,1.28-.57,1.28-1.28s-.57-1.28-1.28-1.28-1.28.57-1.28,1.28.57,1.28,1.28,1.28Zm14.4,0c.71,0,1.28-.57,1.28-1.28s-.57-1.28-1.28-1.28-1.28.57-1.28,1.28.57,1.28,1.28,1.28Zm14.4,0c.71,0,1.28-.57,1.28-1.28s-.57-1.28-1.28-1.28-1.28.57-1.28,1.28.57,1.28,1.28,1.28Zm14.4,0c.71,0,1.28-.57,1.28-1.28s-.57-1.28-1.28-1.28-1.28.57-1.28,1.28.57,1.28,1.28,1.28Zm14.4,0c.71,0,1.28-.57,1.28-1.28s-.57-1.28-1.28-1.28-1.28.57-1.28,1.28.57,1.28,1.28,1.28Zm14.4,0c.71,0,1.28-.57,1.28-1.28s-.57-1.28-1.28-1.28-1.28.57-1.28,1.28.57,1.28,1.28,1.28Zm14.4,0c.71,0,1.28-.57,1.28-1.28s-.57-1.28-1.28-1.28-1.28.57-1.28,1.28.57,1.28,1.28,1.28Zm14.4,0c.71,0,1.28-.57,1.28-1.28s-.57-1.28-1.28-1.28-1.28.57-1.28,1.28.57,1.28,1.28,1.28ZM1.28,132.16c.71,0,1.28-.57,1.28-1.28s-.57-1.28-1.28-1.28-1.28.57-1.28,1.28.57,1.28,1.28,1.28Zm14.4,0c.71,0,1.28-.57,1.28-1.28s-.57-1.28-1.28-1.28-1.28.57-1.28,1.28.57,1.28,1.28,1.28Zm14.4,0c.71,0,1.28-.57,1.28-1.28s-.57-1.28-1.28-1.28-1.28.57-1.28,1.28.57,1.28,1.28,1.28Zm14.4,0c.71,0,1.28-.57,1.28-1.28s-.57-1.28-1.28-1.28-1.28.57-1.28,1.28.57,1.28,1.28,1.28Zm14.4,0c.71,0,1.28-.57,1.28-1.28s-.57-1.28-1.28-1.28-1.28.57-1.28,1.28.57,1.28,1.28,1.28Zm14.4,0c.71,0,1.28-.57,1.28-1.28s-.57-1.28-1.28-1.28-1.28.57-1.28,1.28.57,1.28,1.28,1.28Zm14.4,0c.71,0,1.28-.57,1.28-1.28s-.57-1.28-1.28-1.28-1.28.57-1.28,1.28.57,1.28,1.28,1.28Zm14.4,0c.71,0,1.28-.57,1.28-1.28s-.57-1.28-1.28-1.28-1.28.57-1.28,1.28.57,1.28,1.28,1.28Zm14.4,0c.71,0,1.28-.57,1.28-1.28s-.57-1.28-1.28-1.28-1.28.57-1.28,1.28.57,1.28,1.28,1.28Zm14.4,0c.71,0,1.28-.57,1.28-1.28s-.57-1.28-1.28-1.28-1.28.57-1.28,1.28.57,1.28,1.28,1.28Zm14.4,0c.71,0,1.28-.57,1.28-1.28s-.57-1.28-1.28-1.28-1.28.57-1.28,1.28.57,1.28,1.28,1.28Zm14.4,0c.71,0,1.28-.57,1.28-1.28s-.57-1.28-1.28-1.28-1.28.57-1.28,1.28.57,1.28,1.28,1.28Zm14.4,0c.71,0,1.28-.57,1.28-1.28s-.57-1.28-1.28-1.28-1.28.57-1.28,1.28.57,1.28,1.28,1.28Zm14.4,0c.71,0,1.28-.57,1.28-1.28s-.57-1.28-1.28-1.28-1.28.57-1.28,1.28.57,1.28,1.28,1.28Zm14.4,0c.71,0,1.28-.57,1.28-1.28s-.57-1.28-1.28-1.28-1.28.57-1.28,1.28.57,1.28,1.28,1.28Zm14.4,0c.71,0,1.28-.57,1.28-1.28s-.57-1.28-1.28-1.28-1.28.57-1.28,1.28.57,1.28,1.28,1.28Zm14.4,0c.71,0,1.28-.57,1.28-1.28s-.57-1.28-1.28-1.28-1.28.57-1.28,1.28.57,1.28,1.28,1.28Zm14.4,0c.71,0,1.28-.57,1.28-1.28s-.57-1.28-1.28-1.28-1.28.57-1.28,1.28.57,1.28,1.28,1.28Zm14.4,0c.71,0,1.28-.57,1.28-1.28s-.57-1.28-1.28-1.28-1.28.57-1.28,1.28.57,1.28,1.28,1.28Zm14.4,0c.71,0,1.28-.57,1.28-1.28s-.57-1.28-1.28-1.28-1.28.57-1.28,1.28.57,1.28,1.28,1.28Zm14.4,0c.71,0,1.28-.57,1.28-1.28s-.57-1.28-1.28-1.28-1.28.57-1.28,1.28.57,1.28,1.28,1.28Zm14.4,0c.71,0,1.28-.57,1.28-1.28s-.57-1.28-1.28-1.28-1.28.57-1.28,1.28.57,1.28,1.28,1.28ZM8.48,146.56c.71,0,1.28-.57,1.28-1.28s-.57-1.28-1.28-1.28-1.28.57-1.28,1.28.57,1.28,1.28,1.28Zm14.4,0c.71,0,1.28-.57,1.28-1.28s-.57-1.28-1.28-1.28-1.28.57-1.28,1.28.57,1.28,1.28,1.28Zm14.4,0c.71,0,1.28-.57,1.28-1.28s-.57-1.28-1.28-1.28-1.28.57-1.28,1.28.57,1.28,1.28,1.28Zm14.4,0c.71,0,1.28-.57,1.28-1.28s-.57-1.28-1.28-1.28-1.28.57-1.28,1.28.57,1.28,1.28,1.28Zm14.4,0c.71,0,1.28-.57,1.28-1.28s-.57-1.28-1.28-1.28-1.28.57-1.28,1.28.57,1.28,1.28,1.28Zm14.4,0c.71,0,1.28-.57,1.28-1.28s-.57-1.28-1.28-1.28-1.28.57-1.28,1.28.57,1.28,1.28,1.28Zm14.4,0c.71,0,1.28-.57,1.28-1.28s-.57-1.28-1.28-1.28-1.28.57-1.28,1.28.57,1.28,1.28,1.28Zm14.4,0c.71,0,1.28-.57,1.28-1.28s-.57-1.28-1.28-1.28-1.28.57-1.28,1.28.57,1.28,1.28,1.28Zm14.4,0c.71,0,1.28-.57,1.28-1.28s-.57-1.28-1.28-1.28-1.28.57-1.28,1.28.57,1.28,1.28,1.28Zm14.4,0c.71,0,1.28-.57,1.28-1.28s-.57-1.28-1.28-1.28-1.28.57-1.28,1.28.57,1.28,1.28,1.28Zm14.4,0c.71,0,1.28-.57,1.28-1.28s-.57-1.28-1.28-1.28-1.28.57-1.28,1.28.57,1.28,1.28,1.28Zm14.4,0c.71,0,1.28-.57,1.28-1.28s-.57-1.28-1.28-1.28-1.28.57-1.28,1.28.57,1.28,1.28,1.28Zm14.4,0c.71,0,1.28-.57,1.28-1.28s-.57-1.28-1.28-1.28-1.28.57-1.28,1.28.57,1.28,1.28,1.28Zm14.4,0c.71,0,1.28-.57,1.28-1.28s-.57-1.28-1.28-1.28-1.28.57-1.28,1.28.57,1.28,1.28,1.28Zm14.4,0c.71,0,1.28-.57,1.28-1.28s-.57-1.28-1.28-1.28-1.28.57-1.28,1.28.57,1.28,1.28,1.28Zm14.4,0c.71,0,1.28-.57,1.28-1.28s-.57-1.28-1.28-1.28-1.28.57-1.28,1.28.57,1.28,1.28,1.28Zm14.4,0c.71,0,1.28-.57,1.28-1.28s-.57-1.28-1.28-1.28-1.28.57-1.28,1.28.57,1.28,1.28,1.28Zm14.4,0c.71,0,1.28-.57,1.28-1.28s-.57-1.28-1.28-1.28-1.28.57-1.28,1.28.57,1.28,1.28,1.28Zm14.4,0c.71,0,1.28-.57,1.28-1.28s-.57-1.28-1.28-1.28-1.28.57-1.28,1.28.57,1.28,1.28,1.28Zm14.4,0c.71,0,1.28-.57,1.28-1.28s-.57-1.28-1.28-1.28-1.28.57-1.28,1.28.57,1.28,1.28,1.28Zm14.4,0c.71,0,1.28-.57,1.28-1.28s-.57-1.28-1.28-1.28-1.28.57-1.28,1.28.57,1.28,1.28,1.28Zm14.4,0c.71,0,1.28-.57,1.28-1.28s-.57-1.28-1.28-1.28-1.28.57-1.28,1.28.57,1.28,1.28,1.28ZM1.28,160.96c.71,0,1.28-.57,1.28-1.28s-.57-1.28-1.28-1.28-1.28.57-1.28,1.28.57,1.28,1.28,1.28Zm14.4,0c.71,0,1.28-.57,1.28-1.28s-.57-1.28-1.28-1.28-1.28.57-1.28,1.28.57,1.28,1.28,1.28Zm14.4,0c.71,0,1.28-.57,1.28-1.28s-.57-1.28-1.28-1.28-1.28.57-1.28,1.28.57,1.28,1.28,1.28Zm14.4,0c.71,0,1.28-.57,1.28-1.28s-.57-1.28-1.28-1.28-1.28.57-1.28,1.28.57,1.28,1.28,1.28Zm14.4,0c.71,0,1.28-.57,1.28-1.28s-.57-1.28-1.28-1.28-1.28.57-1.28,1.28.57,1.28,1.28,1.28Zm14.4,0c.71,0,1.28-.57,1.28-1.28s-.57-1.28-1.28-1.28-1.28.57-1.28,1.28.57,1.28,1.28,1.28Zm14.4,0c.71,0,1.28-.57,1.28-1.28s-.57-1.28-1.28-1.28-1.28.57-1.28,1.28.57,1.28,1.28,1.28Zm14.4,0c.71,0,1.28-.57,1.28-1.28s-.57-1.28-1.28-1.28-1.28.57-1.28,1.28.57,1.28,1.28,1.28Zm14.4,0c.71,0,1.28-.57,1.28-1.28s-.57-1.28-1.28-1.28-1.28.57-1.28,1.28.57,1.28,1.28,1.28Zm14.4,0c.71,0,1.28-.57,1.28-1.28s-.57-1.28-1.28-1.28-1.28.57-1.28,1.28.57,1.28,1.28,1.28Zm14.4,0c.71,0,1.28-.57,1.28-1.28s-.57-1.28-1.28-1.28-1.28.57-1.28,1.28.57,1.28,1.28,1.28Zm14.4,0c.71,0,1.28-.57,1.28-1.28s-.57-1.28-1.28-1.28-1.28.57-1.28,1.28.57,1.28,1.28,1.28Zm14.4,0c.71,0,1.28-.57,1.28-1.28s-.57-1.28-1.28-1.28-1.28.57-1.28,1.28.57,1.28,1.28,1.28Zm14.4,0c.71,0,1.28-.57,1.28-1.28s-.57-1.28-1.28-1.28-1.28.57-1.28,1.28.57,1.28,1.28,1.28Zm14.4,0c.71,0,1.28-.57,1.28-1.28s-.57-1.28-1.28-1.28-1.28.57-1.28,1.28.57,1.28,1.28,1.28Zm14.4,0c.71,0,1.28-.57,1.28-1.28s-.57-1.28-1.28-1.28-1.28.57-1.28,1.28.57,1.28,1.28,1.28Zm14.4,0c.71,0,1.28-.57,1.28-1.28s-.57-1.28-1.28-1.28-1.28.57-1.28,1.28.57,1.28,1.28,1.28Zm14.4,0c.71,0,1.28-.57,1.28-1.28s-.57-1.28-1.28-1.28-1.28.57-1.28,1.28.57,1.28,1.28,1.28Zm14.4,0c.71,0,1.28-.57,1.28-1.28s-.57-1.28-1.28-1.28-1.28.57-1.28,1.28.57,1.28,1.28,1.28Zm14.4,0c.71,0,1.28-.57,1.28-1.28s-.57-1.28-1.28-1.28-1.28.57-1.28,1.28.57,1.28,1.28,1.28Zm14.4,0c.71,0,1.28-.57,1.28-1.28s-.57-1.28-1.28-1.28-1.28.57-1.28,1.28.57,1.28,1.28,1.28Zm14.4,0c.71,0,1.28-.57,1.28-1.28s-.57-1.28-1.28-1.28-1.28.57-1.28,1.28.57,1.28,1.28,1.28ZM8.48,175.36c.71,0,1.28-.57,1.28-1.28s-.57-1.28-1.28-1.28-1.28.57-1.28,1.28.57,1.28,1.28,1.28Zm14.4,0c.71,0,1.28-.57,1.28-1.28s-.57-1.28-1.28-1.28-1.28.57-1.28,1.28.57,1.28,1.28,1.28Zm14.4,0c.71,0,1.28-.57,1.28-1.28s-.57-1.28-1.28-1.28-1.28.57-1.28,1.28.57,1.28,1.28,1.28Zm14.4,0c.71,0,1.28-.57,1.28-1.28s-.57-1.28-1.28-1.28-1.28.57-1.28,1.28.57,1.28,1.28,1.28Zm14.4,0c.71,0,1.28-.57,1.28-1.28s-.57-1.28-1.28-1.28-1.28.57-1.28,1.28.57,1.28,1.28,1.28Zm14.4,0c.71,0,1.28-.57,1.28-1.28s-.57-1.28-1.28-1.28-1.28.57-1.28,1.28.57,1.28,1.28,1.28Zm14.4,0c.71,0,1.28-.57,1.28-1.28s-.57-1.28-1.28-1.28-1.28.57-1.28,1.28.57,1.28,1.28,1.28Zm14.4,0c.71,0,1.28-.57,1.28-1.28s-.57-1.28-1.28-1.28-1.28.57-1.28,1.28.57,1.28,1.28,1.28Zm14.4,0c.71,0,1.28-.57,1.28-1.28s-.57-1.28-1.28-1.28-1.28.57-1.28,1.28.57,1.28,1.28,1.28Zm14.4,0c.71,0,1.28-.57,1.28-1.28s-.57-1.28-1.28-1.28-1.28.57-1.28,1.28.57,1.28,1.28,1.28Zm14.4,0c.71,0,1.28-.57,1.28-1.28s-.57-1.28-1.28-1.28-1.28.57-1.28,1.28.57,1.28,1.28,1.28Zm14.4,0c.71,0,1.28-.57,1.28-1.28s-.57-1.28-1.28-1.28-1.28.57-1.28,1.28.57,1.28,1.28,1.28Zm14.4,0c.71,0,1.28-.57,1.28-1.28s-.57-1.28-1.28-1.28-1.28.57-1.28,1.28.57,1.28,1.28,1.28Zm14.4,0c.71,0,1.28-.57,1.28-1.28s-.57-1.28-1.28-1.28-1.28.57-1.28,1.28.57,1.28,1.28,1.28Zm14.4,0c.71,0,1.28-.57,1.28-1.28s-.57-1.28-1.28-1.28-1.28.57-1.28,1.28.57,1.28,1.28,1.28Zm14.4,0c.71,0,1.28-.57,1.28-1.28s-.57-1.28-1.28-1.28-1.28.57-1.28,1.28.57,1.28,1.28,1.28Zm14.4,0c.71,0,1.28-.57,1.28-1.28s-.57-1.28-1.28-1.28-1.28.57-1.28,1.28.57,1.28,1.28,1.28Zm14.4,0c.71,0,1.28-.57,1.28-1.28s-.57-1.28-1.28-1.28-1.28.57-1.28,1.28.57,1.28,1.28,1.28Zm14.4,0c.71,0,1.28-.57,1.28-1.28s-.57-1.28-1.28-1.28-1.28.57-1.28,1.28.57,1.28,1.28,1.28Zm14.4,0c.71,0,1.28-.57,1.28-1.28s-.57-1.28-1.28-1.28-1.28.57-1.28,1.28.57,1.28,1.28,1.28Zm14.4,0c.71,0,1.28-.57,1.28-1.28s-.57-1.28-1.28-1.28-1.28.57-1.28,1.28.57,1.28,1.28,1.28Zm14.4,0c.71,0,1.28-.57,1.28-1.28s-.57-1.28-1.28-1.28-1.28.57-1.28,1.28.57,1.28,1.28,1.28ZM1.28,189.76c.71,0,1.28-.57,1.28-1.28s-.57-1.28-1.28-1.28-1.28.57-1.28,1.28.57,1.28,1.28,1.28Zm14.4,0c.71,0,1.28-.57,1.28-1.28s-.57-1.28-1.28-1.28-1.28.57-1.28,1.28.57,1.28,1.28,1.28Zm14.4,0c.71,0,1.28-.57,1.28-1.28s-.57-1.28-1.28-1.28-1.28.57-1.28,1.28.57,1.28,1.28,1.28Zm14.4,0c.71,0,1.28-.57,1.28-1.28s-.57-1.28-1.28-1.28-1.28.57-1.28,1.28.57,1.28,1.28,1.28Zm14.4,0c.71,0,1.28-.57,1.28-1.28s-.57-1.28-1.28-1.28-1.28.57-1.28,1.28.57,1.28,1.28,1.28Zm14.4,0c.71,0,1.28-.57,1.28-1.28s-.57-1.28-1.28-1.28-1.28.57-1.28,1.28.57,1.28,1.28,1.28Zm14.4,0c.71,0,1.28-.57,1.28-1.28s-.57-1.28-1.28-1.28-1.28.57-1.28,1.28.57,1.28,1.28,1.28Zm14.4,0c.71,0,1.28-.57,1.28-1.28s-.57-1.28-1.28-1.28-1.28.57-1.28,1.28.57,1.28,1.28,1.28Zm14.4,0c.71,0,1.28-.57,1.28-1.28s-.57-1.28-1.28-1.28-1.28.57-1.28,1.28.57,1.28,1.28,1.28Zm14.4,0c.71,0,1.28-.57,1.28-1.28s-.57-1.28-1.28-1.28-1.28.57-1.28,1.28.57,1.28,1.28,1.28Zm14.4,0c.71,0,1.28-.57,1.28-1.28s-.57-1.28-1.28-1.28-1.28.57-1.28,1.28.57,1.28,1.28,1.28Zm14.4,0c.71,0,1.28-.57,1.28-1.28s-.57-1.28-1.28-1.28-1.28.57-1.28,1.28.57,1.28,1.28,1.28Zm14.4,0c.71,0,1.28-.57,1.28-1.28s-.57-1.28-1.28-1.28-1.28.57-1.28,1.28.57,1.28,1.28,1.28Zm14.4,0c.71,0,1.28-.57,1.28-1.28s-.57-1.28-1.28-1.28-1.28.57-1.28,1.28.57,1.28,1.28,1.28Zm14.4,0c.71,0,1.28-.57,1.28-1.28s-.57-1.28-1.28-1.28-1.28.57-1.28,1.28.57,1.28,1.28,1.28Zm14.4,0c.71,0,1.28-.57,1.28-1.28s-.57-1.28-1.28-1.28-1.28.57-1.28,1.28.57,1.28,1.28,1.28Zm14.4,0c.71,0,1.28-.57,1.28-1.28s-.57-1.28-1.28-1.28-1.28.57-1.28,1.28.57,1.28,1.28,1.28Zm14.4,0c.71,0,1.28-.57,1.28-1.28s-.57-1.28-1.28-1.28-1.28.57-1.28,1.28.57,1.28,1.28,1.28Zm14.4,0c.71,0,1.28-.57,1.28-1.28s-.57-1.28-1.28-1.28-1.28.57-1.28,1.28.57,1.28,1.28,1.28Zm14.4,0c.71,0,1.28-.57,1.28-1.28s-.57-1.28-1.28-1.28-1.28.57-1.28,1.28.57,1.28,1.28,1.28Zm14.4,0c.71,0,1.28-.57,1.28-1.28s-.57-1.28-1.28-1.28-1.28.57-1.28,1.28.57,1.28,1.28,1.28Zm14.4,0c.71,0,1.28-.57,1.28-1.28s-.57-1.28-1.28-1.28-1.28.57-1.28,1.28.57,1.28,1.28,1.28ZM8.48,204.16c.71,0,1.28-.57,1.28-1.28s-.57-1.28-1.28-1.28-1.28.57-1.28,1.28.57,1.28,1.28,1.28Zm14.4,0c.71,0,1.28-.57,1.28-1.28s-.57-1.28-1.28-1.28-1.28.57-1.28,1.28.57,1.28,1.28,1.28Zm14.4,0c.71,0,1.28-.57,1.28-1.28s-.57-1.28-1.28-1.28-1.28.57-1.28,1.28.57,1.28,1.28,1.28Zm14.4,0c.71,0,1.28-.57,1.28-1.28s-.57-1.28-1.28-1.28-1.28.57-1.28,1.28.57,1.28,1.28,1.28Zm14.4,0c.71,0,1.28-.57,1.28-1.28s-.57-1.28-1.28-1.28-1.28.57-1.28,1.28.57,1.28,1.28,1.28Zm14.4,0c.71,0,1.28-.57,1.28-1.28s-.57-1.28-1.28-1.28-1.28.57-1.28,1.28.57,1.28,1.28,1.28Zm14.4,0c.71,0,1.28-.57,1.28-1.28s-.57-1.28-1.28-1.28-1.28.57-1.28,1.28.57,1.28,1.28,1.28Zm14.4,0c.71,0,1.28-.57,1.28-1.28s-.57-1.28-1.28-1.28-1.28.57-1.28,1.28.57,1.28,1.28,1.28Zm14.4,0c.71,0,1.28-.57,1.28-1.28s-.57-1.28-1.28-1.28-1.28.57-1.28,1.28.57,1.28,1.28,1.28Zm14.4,0c.71,0,1.28-.57,1.28-1.28s-.57-1.28-1.28-1.28-1.28.57-1.28,1.28.57,1.28,1.28,1.28Zm14.4,0c.71,0,1.28-.57,1.28-1.28s-.57-1.28-1.28-1.28-1.28.57-1.28,1.28.57,1.28,1.28,1.28Zm14.4,0c.71,0,1.28-.57,1.28-1.28s-.57-1.28-1.28-1.28-1.28.57-1.28,1.28.57,1.28,1.28,1.28Zm14.4,0c.71,0,1.28-.57,1.28-1.28s-.57-1.28-1.28-1.28-1.28.57-1.28,1.28.57,1.28,1.28,1.28Zm14.4,0c.71,0,1.28-.57,1.28-1.28s-.57-1.28-1.28-1.28-1.28.57-1.28,1.28.57,1.28,1.28,1.28Zm14.4,0c.71,0,1.28-.57,1.28-1.28s-.57-1.28-1.28-1.28-1.28.57-1.28,1.28.57,1.28,1.28,1.28Zm14.4,0c.71,0,1.28-.57,1.28-1.28s-.57-1.28-1.28-1.28-1.28.57-1.28,1.28.57,1.28,1.28,1.28Zm14.4,0c.71,0,1.28-.57,1.28-1.28s-.57-1.28-1.28-1.28-1.28.57-1.28,1.28.57,1.28,1.28,1.28Zm14.4,0c.71,0,1.28-.57,1.28-1.28s-.57-1.28-1.28-1.28-1.28.57-1.28,1.28.57,1.28,1.28,1.28Zm14.4,0c.71,0,1.28-.57,1.28-1.28s-.57-1.28-1.28-1.28-1.28.57-1.28,1.28.57,1.28,1.28,1.28Zm14.4,0c.71,0,1.28-.57,1.28-1.28s-.57-1.28-1.28-1.28-1.28.57-1.28,1.28.57,1.28,1.28,1.28Zm14.4,0c.71,0,1.28-.57,1.28-1.28s-.57-1.28-1.28-1.28-1.28.57-1.28,1.28.57,1.28,1.28,1.28Zm14.4,0c.71,0,1.28-.57,1.28-1.28s-.57-1.28-1.28-1.28-1.28.57-1.28,1.28.57,1.28,1.28,1.28ZM1.28,218.56c.71,0,1.28-.57,1.28-1.28s-.57-1.28-1.28-1.28-1.28.57-1.28,1.28.57,1.28,1.28,1.28Zm14.4,0c.71,0,1.28-.57,1.28-1.28s-.57-1.28-1.28-1.28-1.28.57-1.28,1.28.57,1.28,1.28,1.28Zm14.4,0c.71,0,1.28-.57,1.28-1.28s-.57-1.28-1.28-1.28-1.28.57-1.28,1.28.57,1.28,1.28,1.28Zm14.4,0c.71,0,1.28-.57,1.28-1.28s-.57-1.28-1.28-1.28-1.28.57-1.28,1.28.57,1.28,1.28,1.28Zm14.4,0c.71,0,1.28-.57,1.28-1.28s-.57-1.28-1.28-1.28-1.28.57-1.28,1.28.57,1.28,1.28,1.28Zm14.4,0c.71,0,1.28-.57,1.28-1.28s-.57-1.28-1.28-1.28-1.28.57-1.28,1.28.57,1.28,1.28,1.28Zm14.4,0c.71,0,1.28-.57,1.28-1.28s-.57-1.28-1.28-1.28-1.28.57-1.28,1.28.57,1.28,1.28,1.28Zm14.4,0c.71,0,1.28-.57,1.28-1.28s-.57-1.28-1.28-1.28-1.28.57-1.28,1.28.57,1.28,1.28,1.28Zm14.4,0c.71,0,1.28-.57,1.28-1.28s-.57-1.28-1.28-1.28-1.28.57-1.28,1.28.57,1.28,1.28,1.28Zm14.4,0c.71,0,1.28-.57,1.28-1.28s-.57-1.28-1.28-1.28-1.28.57-1.28,1.28.57,1.28,1.28,1.28Zm14.4,0c.71,0,1.28-.57,1.28-1.28s-.57-1.28-1.28-1.28-1.28.57-1.28,1.28.57,1.28,1.28,1.28Zm14.4,0c.71,0,1.28-.57,1.28-1.28s-.57-1.28-1.28-1.28-1.28.57-1.28,1.28.57,1.28,1.28,1.28Zm14.4,0c.71,0,1.28-.57,1.28-1.28s-.57-1.28-1.28-1.28-1.28.57-1.28,1.28.57,1.28,1.28,1.28Zm14.4,0c.71,0,1.28-.57,1.28-1.28s-.57-1.28-1.28-1.28-1.28.57-1.28,1.28.57,1.28,1.28,1.28Zm14.4,0c.71,0,1.28-.57,1.28-1.28s-.57-1.28-1.28-1.28-1.28.57-1.28,1.28.57,1.28,1.28,1.28Zm14.4,0c.71,0,1.28-.57,1.28-1.28s-.57-1.28-1.28-1.28-1.28.57-1.28,1.28.57,1.28,1.28,1.28Zm14.4,0c.71,0,1.28-.57,1.28-1.28s-.57-1.28-1.28-1.28-1.28.57-1.28,1.28.57,1.28,1.28,1.28Zm14.4,0c.71,0,1.28-.57,1.28-1.28s-.57-1.28-1.28-1.28-1.28.57-1.28,1.28.57,1.28,1.28,1.28Zm14.4,0c.71,0,1.28-.57,1.28-1.28s-.57-1.28-1.28-1.28-1.28.57-1.28,1.28.57,1.28,1.28,1.28Zm14.4,0c.71,0,1.28-.57,1.28-1.28s-.57-1.28-1.28-1.28-1.28.57-1.28,1.28.57,1.28,1.28,1.28Zm14.4,0c.71,0,1.28-.57,1.28-1.28s-.57-1.28-1.28-1.28-1.28.57-1.28,1.28.57,1.28,1.28,1.28Zm14.4,0c.71,0,1.28-.57,1.28-1.28s-.57-1.28-1.28-1.28-1.28.57-1.28,1.28.57,1.28,1.28,1.28ZM8.48,232.96c.71,0,1.28-.57,1.28-1.28s-.57-1.28-1.28-1.28-1.28.57-1.28,1.28.57,1.28,1.28,1.28Zm14.4,0c.71,0,1.28-.57,1.28-1.28s-.57-1.28-1.28-1.28-1.28.57-1.28,1.28.57,1.28,1.28,1.28Zm14.4,0c.71,0,1.28-.57,1.28-1.28s-.57-1.28-1.28-1.28-1.28.57-1.28,1.28.57,1.28,1.28,1.28Zm14.4,0c.71,0,1.28-.57,1.28-1.28s-.57-1.28-1.28-1.28-1.28.57-1.28,1.28.57,1.28,1.28,1.28Zm14.4,0c.71,0,1.28-.57,1.28-1.28s-.57-1.28-1.28-1.28-1.28.57-1.28,1.28.57,1.28,1.28,1.28Zm14.4,0c.71,0,1.28-.57,1.28-1.28s-.57-1.28-1.28-1.28-1.28.57-1.28,1.28.57,1.28,1.28,1.28Zm14.4,0c.71,0,1.28-.57,1.28-1.28s-.57-1.28-1.28-1.28-1.28.57-1.28,1.28.57,1.28,1.28,1.28Zm14.4,0c.71,0,1.28-.57,1.28-1.28s-.57-1.28-1.28-1.28-1.28.57-1.28,1.28.57,1.28,1.28,1.28Zm14.4,0c.71,0,1.28-.57,1.28-1.28s-.57-1.28-1.28-1.28-1.28.57-1.28,1.28.57,1.28,1.28,1.28Zm14.4,0c.71,0,1.28-.57,1.28-1.28s-.57-1.28-1.28-1.28-1.28.57-1.28,1.28.57,1.28,1.28,1.28Zm14.4,0c.71,0,1.28-.57,1.28-1.28s-.57-1.28-1.28-1.28-1.28.57-1.28,1.28.57,1.28,1.28,1.28Zm14.4,0c.71,0,1.28-.57,1.28-1.28s-.57-1.28-1.28-1.28-1.28.57-1.28,1.28.57,1.28,1.28,1.28Zm14.4,0c.71,0,1.28-.57,1.28-1.28s-.57-1.28-1.28-1.28-1.28.57-1.28,1.28.57,1.28,1.28,1.28Zm14.4,0c.71,0,1.28-.57,1.28-1.28s-.57-1.28-1.28-1.28-1.28.57-1.28,1.28.57,1.28,1.28,1.28Zm14.4,0c.71,0,1.28-.57,1.28-1.28s-.57-1.28-1.28-1.28-1.28.57-1.28,1.28.57,1.28,1.28,1.28Zm14.4,0c.71,0,1.28-.57,1.28-1.28s-.57-1.28-1.28-1.28-1.28.57-1.28,1.28.57,1.28,1.28,1.28Zm14.4,0c.71,0,1.28-.57,1.28-1.28s-.57-1.28-1.28-1.28-1.28.57-1.28,1.28.57,1.28,1.28,1.28Zm14.4,0c.71,0,1.28-.57,1.28-1.28s-.57-1.28-1.28-1.28-1.28.57-1.28,1.28.57,1.28,1.28,1.28Zm14.4,0c.71,0,1.28-.57,1.28-1.28s-.57-1.28-1.28-1.28-1.28.57-1.28,1.28.57,1.28,1.28,1.28Zm14.4,0c.71,0,1.28-.57,1.28-1.28s-.57-1.28-1.28-1.28-1.28.57-1.28,1.28.57,1.28,1.28,1.28Zm14.4,0c.71,0,1.28-.57,1.28-1.28s-.57-1.28-1.28-1.28-1.28.57-1.28,1.28.57,1.28,1.28,1.28Zm14.4,0c.71,0,1.28-.57,1.28-1.28s-.57-1.28-1.28-1.28-1.28.57-1.28,1.28.57,1.28,1.28,1.28ZM1.28,247.36c.71,0,1.28-.57,1.28-1.28s-.57-1.28-1.28-1.28-1.28.57-1.28,1.28.57,1.28,1.28,1.28Zm14.4,0c.71,0,1.28-.57,1.28-1.28s-.57-1.28-1.28-1.28-1.28.57-1.28,1.28.57,1.28,1.28,1.28Zm14.4,0c.71,0,1.28-.57,1.28-1.28s-.57-1.28-1.28-1.28-1.28.57-1.28,1.28.57,1.28,1.28,1.28Zm14.4,0c.71,0,1.28-.57,1.28-1.28s-.57-1.28-1.28-1.28-1.28.57-1.28,1.28.57,1.28,1.28,1.28Zm14.4,0c.71,0,1.28-.57,1.28-1.28s-.57-1.28-1.28-1.28-1.28.57-1.28,1.28.57,1.28,1.28,1.28Zm14.4,0c.71,0,1.28-.57,1.28-1.28s-.57-1.28-1.28-1.28-1.28.57-1.28,1.28.57,1.28,1.28,1.28Zm14.4,0c.71,0,1.28-.57,1.28-1.28s-.57-1.28-1.28-1.28-1.28.57-1.28,1.28.57,1.28,1.28,1.28Zm14.4,0c.71,0,1.28-.57,1.28-1.28s-.57-1.28-1.28-1.28-1.28.57-1.28,1.28.57,1.28,1.28,1.28Zm14.4,0c.71,0,1.28-.57,1.28-1.28s-.57-1.28-1.28-1.28-1.28.57-1.28,1.28.57,1.28,1.28,1.28Zm14.4,0c.71,0,1.28-.57,1.28-1.28s-.57-1.28-1.28-1.28-1.28.57-1.28,1.28.57,1.28,1.28,1.28Zm14.4,0c.71,0,1.28-.57,1.28-1.28s-.57-1.28-1.28-1.28-1.28.57-1.28,1.28.57,1.28,1.28,1.28Zm14.4,0c.71,0,1.28-.57,1.28-1.28s-.57-1.28-1.28-1.28-1.28.57-1.28,1.28.57,1.28,1.28,1.28Zm14.4,0c.71,0,1.28-.57,1.28-1.28s-.57-1.28-1.28-1.28-1.28.57-1.28,1.28.57,1.28,1.28,1.28Zm14.4,0c.71,0,1.28-.57,1.28-1.28s-.57-1.28-1.28-1.28-1.28.57-1.28,1.28.57,1.28,1.28,1.28Zm14.4,0c.71,0,1.28-.57,1.28-1.28s-.57-1.28-1.28-1.28-1.28.57-1.28,1.28.57,1.28,1.28,1.28Zm14.4,0c.71,0,1.28-.57,1.28-1.28s-.57-1.28-1.28-1.28-1.28.57-1.28,1.28.57,1.28,1.28,1.28Zm14.4,0c.71,0,1.28-.57,1.28-1.28s-.57-1.28-1.28-1.28-1.28.57-1.28,1.28.57,1.28,1.28,1.28Zm14.4,0c.71,0,1.28-.57,1.28-1.28s-.57-1.28-1.28-1.28-1.28.57-1.28,1.28.57,1.28,1.28,1.28Zm14.4,0c.71,0,1.28-.57,1.28-1.28s-.57-1.28-1.28-1.28-1.28.57-1.28,1.28.57,1.28,1.28,1.28Zm14.4,0c.71,0,1.28-.57,1.28-1.28s-.57-1.28-1.28-1.28-1.28.57-1.28,1.28.57,1.28,1.28,1.28Zm14.4,0c.71,0,1.28-.57,1.28-1.28s-.57-1.28-1.28-1.28-1.28.57-1.28,1.28.57,1.28,1.28,1.28Zm14.4,0c.71,0,1.28-.57,1.28-1.28s-.57-1.28-1.28-1.28-1.28.57-1.28,1.28.57,1.28,1.28,1.28Zm-295.2,14.4c.71,0,1.28-.57,1.28-1.28s-.57-1.28-1.28-1.28-1.28.57-1.28,1.28.57,1.28,1.28,1.28Zm14.4,0c.71,0,1.28-.57,1.28-1.28s-.57-1.28-1.28-1.28-1.28.57-1.28,1.28.57,1.28,1.28,1.28Zm14.4,0c.71,0,1.28-.57,1.28-1.28s-.57-1.28-1.28-1.28-1.28.57-1.28,1.28.57,1.28,1.28,1.28Zm14.4,0c.71,0,1.28-.57,1.28-1.28s-.57-1.28-1.28-1.28-1.28.57-1.28,1.28.57,1.28,1.28,1.28Zm14.4,0c.71,0,1.28-.57,1.28-1.28s-.57-1.28-1.28-1.28-1.28.57-1.28,1.28.57,1.28,1.28,1.28Zm14.4,0c.71,0,1.28-.57,1.28-1.28s-.57-1.28-1.28-1.28-1.28.57-1.28,1.28.57,1.28,1.28,1.28Zm14.4,0c.71,0,1.28-.57,1.28-1.28s-.57-1.28-1.28-1.28-1.28.57-1.28,1.28.57,1.28,1.28,1.28Zm14.4,0c.71,0,1.28-.57,1.28-1.28s-.57-1.28-1.28-1.28-1.28.57-1.28,1.28.57,1.28,1.28,1.28Zm14.4,0c.71,0,1.28-.57,1.28-1.28s-.57-1.28-1.28-1.28-1.28.57-1.28,1.28.57,1.28,1.28,1.28Zm14.4,0c.71,0,1.28-.57,1.28-1.28s-.57-1.28-1.28-1.28-1.28.57-1.28,1.28.57,1.28,1.28,1.28Zm14.4,0c.71,0,1.28-.57,1.28-1.28s-.57-1.28-1.28-1.28-1.28.57-1.28,1.28.57,1.28,1.28,1.28Zm14.4,0c.71,0,1.28-.57,1.28-1.28s-.57-1.28-1.28-1.28-1.28.57-1.28,1.28.57,1.28,1.28,1.28Zm14.4,0c.71,0,1.28-.57,1.28-1.28s-.57-1.28-1.28-1.28-1.28.57-1.28,1.28.57,1.28,1.28,1.28Zm14.4,0c.71,0,1.28-.57,1.28-1.28s-.57-1.28-1.28-1.28-1.28.57-1.28,1.28.57,1.28,1.28,1.28Zm14.4,0c.71,0,1.28-.57,1.28-1.28s-.57-1.28-1.28-1.28-1.28.57-1.28,1.28.57,1.28,1.28,1.28Zm14.4,0c.71,0,1.28-.57,1.28-1.28s-.57-1.28-1.28-1.28-1.28.57-1.28,1.28.57,1.28,1.28,1.28Zm14.4,0c.71,0,1.28-.57,1.28-1.28s-.57-1.28-1.28-1.28-1.28.57-1.28,1.28.57,1.28,1.28,1.28Zm14.4,0c.71,0,1.28-.57,1.28-1.28s-.57-1.28-1.28-1.28-1.28.57-1.28,1.28.57,1.28,1.28,1.28Zm14.4,0c.71,0,1.28-.57,1.28-1.28s-.57-1.28-1.28-1.28-1.28.57-1.28,1.28.57,1.28,1.28,1.28Zm14.4,0c.71,0,1.28-.57,1.28-1.28s-.57-1.28-1.28-1.28-1.28.57-1.28,1.28.57,1.28,1.28,1.28Zm14.4,0c.71,0,1.28-.57,1.28-1.28s-.57-1.28-1.28-1.28-1.28.57-1.28,1.28.57,1.28,1.28,1.28Zm14.4,0c.71,0,1.28-.57,1.28-1.28s-.57-1.28-1.28-1.28-1.28.57-1.28,1.28.57,1.28,1.28,1.28ZM1.28,276.16c.71,0,1.28-.57,1.28-1.28s-.57-1.28-1.28-1.28-1.28.57-1.28,1.28.57,1.28,1.28,1.28Zm14.4,0c.71,0,1.28-.57,1.28-1.28s-.57-1.28-1.28-1.28-1.28.57-1.28,1.28.57,1.28,1.28,1.28Zm14.4,0c.71,0,1.28-.57,1.28-1.28s-.57-1.28-1.28-1.28-1.28.57-1.28,1.28.57,1.28,1.28,1.28Zm14.4,0c.71,0,1.28-.57,1.28-1.28s-.57-1.28-1.28-1.28-1.28.57-1.28,1.28.57,1.28,1.28,1.28Zm14.4,0c.71,0,1.28-.57,1.28-1.28s-.57-1.28-1.28-1.28-1.28.57-1.28,1.28.57,1.28,1.28,1.28Zm14.4,0c.71,0,1.28-.57,1.28-1.28s-.57-1.28-1.28-1.28-1.28.57-1.28,1.28.57,1.28,1.28,1.28Zm14.4,0c.71,0,1.28-.57,1.28-1.28s-.57-1.28-1.28-1.28-1.28.57-1.28,1.28.57,1.28,1.28,1.28Zm14.4,0c.71,0,1.28-.57,1.28-1.28s-.57-1.28-1.28-1.28-1.28.57-1.28,1.28.57,1.28,1.28,1.28Zm14.4,0c.71,0,1.28-.57,1.28-1.28s-.57-1.28-1.28-1.28-1.28.57-1.28,1.28.57,1.28,1.28,1.28Zm14.4,0c.71,0,1.28-.57,1.28-1.28s-.57-1.28-1.28-1.28-1.28.57-1.28,1.28.57,1.28,1.28,1.28Zm14.4,0c.71,0,1.28-.57,1.28-1.28s-.57-1.28-1.28-1.28-1.28.57-1.28,1.28.57,1.28,1.28,1.28Zm14.4,0c.71,0,1.28-.57,1.28-1.28s-.57-1.28-1.28-1.28-1.28.57-1.28,1.28.57,1.28,1.28,1.28Zm14.4,0c.71,0,1.28-.57,1.28-1.28s-.57-1.28-1.28-1.28-1.28.57-1.28,1.28.57,1.28,1.28,1.28Zm14.4,0c.71,0,1.28-.57,1.28-1.28s-.57-1.28-1.28-1.28-1.28.57-1.28,1.28.57,1.28,1.28,1.28Zm14.4,0c.71,0,1.28-.57,1.28-1.28s-.57-1.28-1.28-1.28-1.28.57-1.28,1.28.57,1.28,1.28,1.28Zm14.4,0c.71,0,1.28-.57,1.28-1.28s-.57-1.28-1.28-1.28-1.28.57-1.28,1.28.57,1.28,1.28,1.28Zm14.4,0c.71,0,1.28-.57,1.28-1.28s-.57-1.28-1.28-1.28-1.28.57-1.28,1.28.57,1.28,1.28,1.28Zm14.4,0c.71,0,1.28-.57,1.28-1.28s-.57-1.28-1.28-1.28-1.28.57-1.28,1.28.57,1.28,1.28,1.28Zm14.4,0c.71,0,1.28-.57,1.28-1.28s-.57-1.28-1.28-1.28-1.28.57-1.28,1.28.57,1.28,1.28,1.28Zm14.4,0c.71,0,1.28-.57,1.28-1.28s-.57-1.28-1.28-1.28-1.28.57-1.28,1.28.57,1.28,1.28,1.28Zm14.4,0c.71,0,1.28-.57,1.28-1.28s-.57-1.28-1.28-1.28-1.28.57-1.28,1.28.57,1.28,1.28,1.28Zm14.4,0c.71,0,1.28-.57,1.28-1.28s-.57-1.28-1.28-1.28-1.28.57-1.28,1.28.57,1.28,1.28,1.28Zm-295.2,14.4c.71,0,1.28-.57,1.28-1.28s-.57-1.28-1.28-1.28-1.28.57-1.28,1.28.57,1.28,1.28,1.28Zm14.4,0c.71,0,1.28-.57,1.28-1.28s-.57-1.28-1.28-1.28-1.28.57-1.28,1.28.57,1.28,1.28,1.28Zm14.4,0c.71,0,1.28-.57,1.28-1.28s-.57-1.28-1.28-1.28-1.28.57-1.28,1.28.57,1.28,1.28,1.28Zm14.4,0c.71,0,1.28-.57,1.28-1.28s-.57-1.28-1.28-1.28-1.28.57-1.28,1.28.57,1.28,1.28,1.28Zm14.4,0c.71,0,1.28-.57,1.28-1.28s-.57-1.28-1.28-1.28-1.28.57-1.28,1.28.57,1.28,1.28,1.28Zm14.4,0c.71,0,1.28-.57,1.28-1.28s-.57-1.28-1.28-1.28-1.28.57-1.28,1.28.57,1.28,1.28,1.28Zm14.4,0c.71,0,1.28-.57,1.28-1.28s-.57-1.28-1.28-1.28-1.28.57-1.28,1.28.57,1.28,1.28,1.28Zm14.4,0c.71,0,1.28-.57,1.28-1.28s-.57-1.28-1.28-1.28-1.28.57-1.28,1.28.57,1.28,1.28,1.28Zm14.4,0c.71,0,1.28-.57,1.28-1.28s-.57-1.28-1.28-1.28-1.28.57-1.28,1.28.57,1.28,1.28,1.28Zm14.4,0c.71,0,1.28-.57,1.28-1.28s-.57-1.28-1.28-1.28-1.28.57-1.28,1.28.57,1.28,1.28,1.28Zm14.4,0c.71,0,1.28-.57,1.28-1.28s-.57-1.28-1.28-1.28-1.28.57-1.28,1.28.57,1.28,1.28,1.28Zm14.4,0c.71,0,1.28-.57,1.28-1.28s-.57-1.28-1.28-1.28-1.28.57-1.28,1.28.57,1.28,1.28,1.28Zm14.4,0c.71,0,1.28-.57,1.28-1.28s-.57-1.28-1.28-1.28-1.28.57-1.28,1.28.57,1.28,1.28,1.28Zm14.4,0c.71,0,1.28-.57,1.28-1.28s-.57-1.28-1.28-1.28-1.28.57-1.28,1.28.57,1.28,1.28,1.28Zm14.4,0c.71,0,1.28-.57,1.28-1.28s-.57-1.28-1.28-1.28-1.28.57-1.28,1.28.57,1.28,1.28,1.28Zm14.4,0c.71,0,1.28-.57,1.28-1.28s-.57-1.28-1.28-1.28-1.28.57-1.28,1.28.57,1.28,1.28,1.28Zm14.4,0c.71,0,1.28-.57,1.28-1.28s-.57-1.28-1.28-1.28-1.28.57-1.28,1.28.57,1.28,1.28,1.28Zm14.4,0c.71,0,1.28-.57,1.28-1.28s-.57-1.28-1.28-1.28-1.28.57-1.28,1.28.57,1.28,1.28,1.28Zm14.4,0c.71,0,1.28-.57,1.28-1.28s-.57-1.28-1.28-1.28-1.28.57-1.28,1.28.57,1.28,1.28,1.28Zm14.4,0c.71,0,1.28-.57,1.28-1.28s-.57-1.28-1.28-1.28-1.28.57-1.28,1.28.57,1.28,1.28,1.28Zm14.4,0c.71,0,1.28-.57,1.28-1.28s-.57-1.28-1.28-1.28-1.28.57-1.28,1.28.57,1.28,1.28,1.28Zm14.4,0c.71,0,1.28-.57,1.28-1.28s-.57-1.28-1.28-1.28-1.28.57-1.28,1.28.57,1.28,1.28,1.28ZM1.28,304.96c.71,0,1.28-.57,1.28-1.28s-.57-1.28-1.28-1.28-1.28.57-1.28,1.28.57,1.28,1.28,1.28Zm14.4,0c.71,0,1.28-.57,1.28-1.28s-.57-1.28-1.28-1.28-1.28.57-1.28,1.28.57,1.28,1.28,1.28Zm14.4,0c.71,0,1.28-.57,1.28-1.28s-.57-1.28-1.28-1.28-1.28.57-1.28,1.28.57,1.28,1.28,1.28Zm14.4,0c.71,0,1.28-.57,1.28-1.28s-.57-1.28-1.28-1.28-1.28.57-1.28,1.28.57,1.28,1.28,1.28Zm14.4,0c.71,0,1.28-.57,1.28-1.28s-.57-1.28-1.28-1.28-1.28.57-1.28,1.28.57,1.28,1.28,1.28Zm14.4,0c.71,0,1.28-.57,1.28-1.28s-.57-1.28-1.28-1.28-1.28.57-1.28,1.28.57,1.28,1.28,1.28Zm14.4,0c.71,0,1.28-.57,1.28-1.28s-.57-1.28-1.28-1.28-1.28.57-1.28,1.28.57,1.28,1.28,1.28Zm14.4,0c.71,0,1.28-.57,1.28-1.28s-.57-1.28-1.28-1.28-1.28.57-1.28,1.28.57,1.28,1.28,1.28Zm14.4,0c.71,0,1.28-.57,1.28-1.28s-.57-1.28-1.28-1.28-1.28.57-1.28,1.28.57,1.28,1.28,1.28Zm14.4,0c.71,0,1.28-.57,1.28-1.28s-.57-1.28-1.28-1.28-1.28.57-1.28,1.28.57,1.28,1.28,1.28Zm14.4,0c.71,0,1.28-.57,1.28-1.28s-.57-1.28-1.28-1.28-1.28.57-1.28,1.28.57,1.28,1.28,1.28Zm14.4,0c.71,0,1.28-.57,1.28-1.28s-.57-1.28-1.28-1.28-1.28.57-1.28,1.28.57,1.28,1.28,1.28Zm14.4,0c.71,0,1.28-.57,1.28-1.28s-.57-1.28-1.28-1.28-1.28.57-1.28,1.28.57,1.28,1.28,1.28Zm14.4,0c.71,0,1.28-.57,1.28-1.28s-.57-1.28-1.28-1.28-1.28.57-1.28,1.28.57,1.28,1.28,1.28Zm14.4,0c.71,0,1.28-.57,1.28-1.28s-.57-1.28-1.28-1.28-1.28.57-1.28,1.28.57,1.28,1.28,1.28Zm14.4,0c.71,0,1.28-.57,1.28-1.28s-.57-1.28-1.28-1.28-1.28.57-1.28,1.28.57,1.28,1.28,1.28Zm14.4,0c.71,0,1.28-.57,1.28-1.28s-.57-1.28-1.28-1.28-1.28.57-1.28,1.28.57,1.28,1.28,1.28Zm14.4,0c.71,0,1.28-.57,1.28-1.28s-.57-1.28-1.28-1.28-1.28.57-1.28,1.28.57,1.28,1.28,1.28Zm14.4,0c.71,0,1.28-.57,1.28-1.28s-.57-1.28-1.28-1.28-1.28.57-1.28,1.28.57,1.28,1.28,1.28Zm14.4,0c.71,0,1.28-.57,1.28-1.28s-.57-1.28-1.28-1.28-1.28.57-1.28,1.28.57,1.28,1.28,1.28Zm14.4,0c.71,0,1.28-.57,1.28-1.28s-.57-1.28-1.28-1.28-1.28.57-1.28,1.28.57,1.28,1.28,1.28Zm14.4,0c.71,0,1.28-.57,1.28-1.28s-.57-1.28-1.28-1.28-1.28.57-1.28,1.28.57,1.28,1.28,1.28Z"/></g></g></svg>