<?xml version="1.0" encoding="UTF-8"?><svg id="Capa_2" xmlns="http://www.w3.org/2000/svg" viewBox="0 0 512 490.67"><defs><style>.cls-1{fill:#f8f8f8;}</style></defs><g id="Bold"><path class="cls-1" d="m256,0C114.56,0,0,112.64,0,251.56c0,111.17,73.34,205.44,175.04,238.68,12.8,2.37,17.49-5.42,17.49-12.1,0-5.97-.21-21.8-.32-42.77-71.21,15.17-86.23-33.75-86.23-33.75-11.65-29.03-28.48-36.8-28.48-36.8-23.19-15.59,1.79-15.27,1.79-15.27,25.71,1.75,39.21,25.92,39.21,25.92,22.83,38.46,59.93,27.35,74.56,20.93,2.3-16.28,8.9-27.35,16.21-33.64-56.85-6.29-116.61-27.93-116.61-124.31,0-27.46,9.92-49.9,26.35-67.5-2.88-6.36-11.52-31.94,2.24-66.58,0,0,21.44-6.74,70.4,25.79,20.48-5.59,42.24-8.36,64-8.49,21.76.13,43.52,2.9,64,8.49,48.64-32.53,70.08-25.79,70.08-25.79,13.76,34.65,5.12,60.22,2.56,66.58,16.32,17.6,26.24,40.04,26.24,67.5,0,96.64-59.84,117.91-116.8,124.1,8.96,7.55,17.28,22.98,17.28,46.55,0,33.66-.32,60.71-.32,68.89,0,6.59,4.48,14.46,17.6,11.95,102.42-33.02,175.7-127.36,175.7-238.36C512,112.64,397.38,0,256,0Z"/></g></svg>