<?xml version="1.0" encoding="UTF-8"?><svg id="Capa_2" xmlns="http://www.w3.org/2000/svg" viewBox="0 0 512 512"><defs><style>.cls-1{fill:#f8f8f8;}</style></defs><g id="Capa_1-2"><path class="cls-1" d="m352,0h-192C71.65,0,0,71.65,0,160v192c0,88.35,71.65,160,160,160h192c88.35,0,160-71.65,160-160v-192C512,71.65,440.35,0,352,0Zm112,352c0,61.76-50.24,112-112,112h-192c-61.76,0-112-50.24-112-112v-192c0-61.76,50.24-112,112-112h192c61.76,0,112,50.24,112,112v192Z"/><path class="cls-1" d="m256,128c-70.69,0-128,57.31-128,128s57.31,128,128,128,128-57.31,128-128-57.31-128-128-128Zm0,208c-44.1,0-80-35.9-80-80s35.9-80,80-80,80,35.87,80,80-35.9,80-80,80Z"/><circle class="cls-1" cx="393.6" cy="118.4" r="17.06"/></g></svg>