<?xml version="1.0" encoding="UTF-8"?><svg id="Capa_2" xmlns="http://www.w3.org/2000/svg" viewBox="0 0 512 512"><defs><style>.cls-1{fill:#f8f8f8;}</style></defs><g id="Capa_1-2"><path class="cls-1" d="m160.01,423h-70v-226h70v226Zm6.98-298c0-22.63-18.36-41-40.98-41s-41.02,18.37-41.02,41,18.31,41,41.02,41,40.98-18.37,40.98-41Zm255.01,173.67c0-60.67-12.82-105.66-83.69-105.66-34.05,0-56.91,17.03-66.25,34.74h-.07v-30.74h-68v226h68v-112.21c0-29.39,7.48-57.86,43.91-57.86s37.09,33.61,37.09,59.72v110.34h69v-124.34Zm90,153.34V60c0-33.09-26.91-60-60-60H60C26.91,0,0,26.91,0,60v392c0,33.09,26.91,60,60,60h392c33.09,0,60-26.91,60-60Zm-60-412c11.03,0,20,8.97,20,20v392c0,11.03-8.97,20-20,20H60c-11.03,0-20-8.97-20-20V60c0-11.03,8.97-20,20-20h392Z"/></g></svg>